<svg width="16" height="16" viewBox="0 0 16 16" fill="none" xmlns="http://www.w3.org/2000/svg">
<g id="iconspace_Visible_25px">
<path id="Combined Shape" fill-rule="evenodd" clip-rule="evenodd" d="M1.4067 7.62499C2.6362 4.60545 5.17286 2.66666 8.00004 2.66666C10.8272 2.66666 13.3639 4.60545 14.5934 7.62499C14.6911 7.8651 14.6911 8.1349 14.5934 8.375C13.3639 11.3945 10.8272 13.3333 8.00004 13.3333C5.17286 13.3333 2.6362 11.3945 1.4067 8.375C1.30893 8.1349 1.30893 7.8651 1.4067 7.62499ZM8.00004 12.0998C10.2794 12.0998 12.3692 10.5245 13.4333 8C12.3692 5.4755 10.2794 3.90022 8.00004 3.90022C5.72067 3.90022 3.63088 5.4755 2.56677 8C3.63088 10.5245 5.72067 12.0998 8.00004 12.0998ZM8.00004 10.4308C6.68086 10.4308 5.61145 9.34251 5.61145 8C5.61145 6.65748 6.68086 5.56916 8.00004 5.56916C9.31922 5.56916 10.3886 6.65748 10.3886 8C10.3886 9.34251 9.31922 10.4308 8.00004 10.4308ZM8.00004 9.19728C8.64979 9.19728 9.17651 8.66124 9.17651 8C9.17651 7.33876 8.64979 6.80272 8.00004 6.80272C7.35029 6.80272 6.82357 7.33876 6.82357 8C6.82357 8.66124 7.35029 9.19728 8.00004 9.19728Z" fill="#92929D"/>
</g>
</svg>
